<?xml version="1.0" encoding="UTF-8" standalone="no"?>
<!DOCTYPE svg PUBLIC "-//W3C//DTD SVG 1.1//EN" "http://www.w3.org/Graphics/SVG/1.1/DTD/svg11.dtd">
<!-- Generated by graphviz version 2.38.0 (20140413.2041)
 -->
<!-- Title: %3 Pages: 1 -->
<svg width="1340pt" height="219pt" viewBox="0.00 0.00 1340.11 219.00" xmlns="http://www.w3.org/2000/svg" xmlns:xlink="http://www.w3.org/1999/xlink">
<g id="graph0" class="graph" transform="scale(1 1) rotate(0) translate(4 215)">
<title>%3</title>
<polygon fill="white" stroke="none" points="-4,4 -4,-215 1336.11,-215 1336.11,4 -4,4"/>
<!-- Rhttp://njh.me/#Boby -->
<g id="node1" class="node"><title>Rhttp://njh.me/#Boby</title>
<g id="a_node1"><a xlink:href="http://njh.me/#Boby" xlink:title="http://njh.me/#Boby">
<ellipse fill="none" stroke="blue" cx="715.232" cy="-193" rx="104.782" ry="18"/>
<text text-anchor="middle" x="715.232" y="-189.3" font-family="Times,serif" font-size="14.00">http://njh.me/#Boby</text>
</a>
</g>
</g>
<!-- Rhttp://www.labd.org/2015/schema#Personne -->
<g id="node2" class="node"><title>Rhttp://www.labd.org/2015/schema#Personne</title>
<g id="a_node2"><a xlink:href="http://www.labd.org/2015/schema#Personne" xlink:title="http://www.labd.org/2015/schema#Personne">
<ellipse fill="none" stroke="blue" cx="978.232" cy="-105.5" rx="218.261" ry="18"/>
<text text-anchor="middle" x="978.232" y="-101.8" font-family="Times,serif" font-size="14.00">http://www.labd.org/2015/schema#Personne</text>
</a>
</g>
</g>
<!-- Rhttp://njh.me/#Boby&#45;&gt;Rhttp://www.labd.org/2015/schema#Personne -->
<g id="edge1" class="edge"><title>Rhttp://njh.me/#Boby-&gt;Rhttp://www.labd.org/2015/schema#Personne</title>
<path fill="none" stroke="black" d="M761.948,-176.813C805.31,-162.716 870.113,-141.649 917.479,-126.251"/>
<polygon fill="black" stroke="black" points="918.58,-129.573 927.008,-123.153 916.416,-122.916 918.58,-129.573"/>
<text text-anchor="middle" x="892.232" y="-145.8" font-family="Times,serif" font-size="14.00">rdf:type</text>
</g>
<!-- LBoby -->
<g id="node3" class="node"><title>LBoby</title>
<polygon fill="none" stroke="black" points="688.232,-87.5 688.232,-123.5 742.232,-123.5 742.232,-87.5 688.232,-87.5"/>
<text text-anchor="middle" x="715.232" y="-101.8" font-family="Times,serif" font-size="14.00">Boby</text>
</g>
<!-- Rhttp://njh.me/#Boby&#45;&gt;LBoby -->
<g id="edge2" class="edge"><title>Rhttp://njh.me/#Boby-&gt;LBoby</title>
<path fill="none" stroke="black" d="M715.232,-174.698C715.232,-162.993 715.232,-147.286 715.232,-133.897"/>
<polygon fill="black" stroke="black" points="718.733,-133.776 715.232,-123.776 711.733,-133.777 718.733,-133.776"/>
</g>
<!-- B_:genid1 -->
<g id="node4" class="node"><title>B_:genid1</title>
<ellipse fill="none" stroke="green" cx="652.232" cy="-105.5" rx="18" ry="18"/>
</g>
<!-- Rhttp://njh.me/#Boby&#45;&gt;B_:genid1 -->
<g id="edge3" class="edge"><title>Rhttp://njh.me/#Boby-&gt;B_:genid1</title>
<path fill="none" stroke="black" d="M702.786,-175.108C693.045,-161.889 679.412,-143.386 668.757,-128.926"/>
<polygon fill="black" stroke="black" points="671.319,-126.503 662.569,-120.529 665.684,-130.656 671.319,-126.503"/>
</g>
<!-- Rhttp://www.labd.org/2015/schema#Leon -->
<g id="node7" class="node"><title>Rhttp://www.labd.org/2015/schema#Leon</title>
<g id="a_node7"><a xlink:href="http://www.labd.org/2015/schema#Leon" xlink:title="http://www.labd.org/2015/schema#Leon">
<ellipse fill="none" stroke="blue" cx="198.232" cy="-18" rx="198.465" ry="18"/>
<text text-anchor="middle" x="198.232" y="-14.3" font-family="Times,serif" font-size="14.00">http://www.labd.org/2015/schema#Leon</text>
</a>
</g>
</g>
<!-- B_:genid1&#45;&gt;Rhttp://www.labd.org/2015/schema#Leon -->
<g id="edge6" class="edge"><title>B_:genid1-&gt;Rhttp://www.labd.org/2015/schema#Leon</title>
<path fill="none" stroke="black" d="M634.713,-101.201C578.693,-90.6507 401.131,-57.211 290.492,-36.3749"/>
<polygon fill="black" stroke="black" points="290.807,-32.8727 280.332,-34.4614 289.511,-39.7518 290.807,-32.8727"/>
<text text-anchor="middle" x="492.732" y="-57.8" font-family="Times,serif" font-size="14.00">rdf:subject</text>
</g>
<!-- Rhttp://www.labd.org/2015/schema#estAtteintPar -->
<g id="node8" class="node"><title>Rhttp://www.labd.org/2015/schema#estAtteintPar</title>
<g id="a_node8"><a xlink:href="http://www.labd.org/2015/schema#estAtteintPar" xlink:title="http://www.labd.org/2015/schema#estAtteintPar">
<ellipse fill="none" stroke="blue" cx="652.232" cy="-18" rx="237.758" ry="18"/>
<text text-anchor="middle" x="652.232" y="-14.3" font-family="Times,serif" font-size="14.00">http://www.labd.org/2015/schema#estAtteintPar</text>
</a>
</g>
</g>
<!-- B_:genid1&#45;&gt;Rhttp://www.labd.org/2015/schema#estAtteintPar -->
<g id="edge7" class="edge"><title>B_:genid1-&gt;Rhttp://www.labd.org/2015/schema#estAtteintPar</title>
<path fill="none" stroke="black" d="M652.232,-87.1978C652.232,-75.493 652.232,-59.7864 652.232,-46.397"/>
<polygon fill="black" stroke="black" points="655.733,-46.2764 652.232,-36.2765 648.733,-46.2765 655.733,-46.2764"/>
<text text-anchor="middle" x="699.232" y="-57.8" font-family="Times,serif" font-size="14.00">rdf:predicate</text>
</g>
<!-- Rhttp://www.labd.org/2015/schema#maladie -->
<g id="node9" class="node"><title>Rhttp://www.labd.org/2015/schema#maladie</title>
<g id="a_node9"><a xlink:href="http://www.labd.org/2015/schema#maladie" xlink:title="http://www.labd.org/2015/schema#maladie">
<ellipse fill="none" stroke="blue" cx="1120.23" cy="-18" rx="211.762" ry="18"/>
<text text-anchor="middle" x="1120.23" y="-14.3" font-family="Times,serif" font-size="14.00">http://www.labd.org/2015/schema#maladie</text>
</a>
</g>
</g>
<!-- B_:genid1&#45;&gt;Rhttp://www.labd.org/2015/schema#maladie -->
<g id="edge8" class="edge"><title>B_:genid1-&gt;Rhttp://www.labd.org/2015/schema#maladie</title>
<path fill="none" stroke="black" d="M666.2,-93.8607C670.223,-91.2466 674.743,-88.7104 679.232,-87 708.827,-75.724 880.559,-51.107 1000.76,-34.794"/>
<polygon fill="black" stroke="black" points="1001.33,-38.2487 1010.77,-33.4384 1000.39,-31.312 1001.33,-38.2487"/>
<text text-anchor="middle" x="890.232" y="-57.8" font-family="Times,serif" font-size="14.00">rdf:object</text>
</g>
<!-- Rhttp://njh.me/#Leon -->
<g id="node5" class="node"><title>Rhttp://njh.me/#Leon</title>
<g id="a_node5"><a xlink:href="http://njh.me/#Leon" xlink:title="http://njh.me/#Leon">
<ellipse fill="none" stroke="blue" cx="1175.23" cy="-193" rx="104.782" ry="18"/>
<text text-anchor="middle" x="1175.23" y="-189.3" font-family="Times,serif" font-size="14.00">http://njh.me/#Leon</text>
</a>
</g>
</g>
<!-- Rhttp://njh.me/#Leon&#45;&gt;Rhttp://www.labd.org/2015/schema#Personne -->
<g id="edge4" class="edge"><title>Rhttp://njh.me/#Leon-&gt;Rhttp://www.labd.org/2015/schema#Personne</title>
<path fill="none" stroke="black" d="M1138.64,-176.118C1107.01,-162.39 1061.05,-142.445 1026.43,-127.418"/>
<polygon fill="black" stroke="black" points="1027.55,-124.091 1016.99,-123.32 1024.77,-130.512 1027.55,-124.091"/>
<text text-anchor="middle" x="1124.23" y="-145.8" font-family="Times,serif" font-size="14.00">rdf:type</text>
</g>
<!-- LLeon -->
<g id="node6" class="node"><title>LLeon</title>
<polygon fill="none" stroke="black" points="1214.23,-87.5 1214.23,-123.5 1268.23,-123.5 1268.23,-87.5 1214.23,-87.5"/>
<text text-anchor="middle" x="1241.23" y="-101.8" font-family="Times,serif" font-size="14.00">Leon</text>
</g>
<!-- Rhttp://njh.me/#Leon&#45;&gt;LLeon -->
<g id="edge5" class="edge"><title>Rhttp://njh.me/#Leon-&gt;LLeon</title>
<path fill="none" stroke="black" d="M1188.27,-175.108C1197.79,-162.776 1210.86,-145.844 1221.63,-131.888"/>
<polygon fill="black" stroke="black" points="1224.65,-133.704 1227.99,-123.65 1219.11,-129.427 1224.65,-133.704"/>
</g>
</g>
</svg>