<?xml version="1.0" encoding="UTF-8" standalone="no"?>
<!DOCTYPE svg PUBLIC "-//W3C//DTD SVG 1.1//EN" "http://www.w3.org/Graphics/SVG/1.1/DTD/svg11.dtd">
<!-- Generated by graphviz version 2.38.0 (20140413.2041)
 -->
<!-- Title: %3 Pages: 1 -->
<svg width="1586pt" height="219pt" viewBox="0.00 0.00 1586.01 219.00" xmlns="http://www.w3.org/2000/svg" xmlns:xlink="http://www.w3.org/1999/xlink">
<g id="graph0" class="graph" transform="scale(1 1) rotate(0) translate(4 215)">
<title>%3</title>
<polygon fill="white" stroke="none" points="-4,4 -4,-215 1582.01,-215 1582.01,4 -4,4"/>
<!-- Rhttp://njh.me/#Boby -->
<g id="node1" class="node"><title>Rhttp://njh.me/#Boby</title>
<g id="a_node1"><a xlink:href="http://njh.me/#Boby" xlink:title="http://njh.me/#Boby">
<ellipse fill="none" stroke="blue" cx="838.179" cy="-193" rx="104.782" ry="18"/>
<text text-anchor="middle" x="838.179" y="-189.3" font-family="Times,serif" font-size="14.00">http://njh.me/#Boby</text>
</a>
</g>
</g>
<!-- Rhttp://www.labd.org/2015/voitures/schema#Personne -->
<g id="node2" class="node"><title>Rhttp://www.labd.org/2015/voitures/schema#Personne</title>
<g id="a_node2"><a xlink:href="http://www.labd.org/2015/voitures/schema#Personne" xlink:title="http://www.labd.org/2015/voitures/schema#Personne">
<ellipse fill="none" stroke="blue" cx="1142.18" cy="-105.5" rx="259.154" ry="18"/>
<text text-anchor="middle" x="1142.18" y="-101.8" font-family="Times,serif" font-size="14.00">http://www.labd.org/2015/voitures/schema#Personne</text>
</a>
</g>
</g>
<!-- Rhttp://njh.me/#Boby&#45;&gt;Rhttp://www.labd.org/2015/voitures/schema#Personne -->
<g id="edge1" class="edge"><title>Rhttp://njh.me/#Boby-&gt;Rhttp://www.labd.org/2015/voitures/schema#Personne</title>
<path fill="none" stroke="black" d="M890.438,-177.302C941.045,-163.069 1018.06,-141.408 1073.58,-125.794"/>
<polygon fill="black" stroke="black" points="1074.65,-129.127 1083.33,-123.05 1072.76,-122.388 1074.65,-129.127"/>
<text text-anchor="middle" x="1038.18" y="-145.8" font-family="Times,serif" font-size="14.00">rdf:type</text>
</g>
<!-- LBoby -->
<g id="node3" class="node"><title>LBoby</title>
<polygon fill="none" stroke="black" points="811.179,-87.5 811.179,-123.5 865.179,-123.5 865.179,-87.5 811.179,-87.5"/>
<text text-anchor="middle" x="838.179" y="-101.8" font-family="Times,serif" font-size="14.00">Boby</text>
</g>
<!-- Rhttp://njh.me/#Boby&#45;&gt;LBoby -->
<g id="edge2" class="edge"><title>Rhttp://njh.me/#Boby-&gt;LBoby</title>
<path fill="none" stroke="black" d="M838.179,-174.698C838.179,-162.993 838.179,-147.286 838.179,-133.897"/>
<polygon fill="black" stroke="black" points="841.679,-133.776 838.179,-123.776 834.679,-133.777 841.679,-133.776"/>
</g>
<!-- B_:genid1 -->
<g id="node4" class="node"><title>B_:genid1</title>
<ellipse fill="none" stroke="green" cx="775.179" cy="-105.5" rx="18" ry="18"/>
</g>
<!-- Rhttp://njh.me/#Boby&#45;&gt;B_:genid1 -->
<g id="edge3" class="edge"><title>Rhttp://njh.me/#Boby-&gt;B_:genid1</title>
<path fill="none" stroke="black" d="M825.732,-175.108C815.992,-161.889 802.358,-143.386 791.703,-128.926"/>
<polygon fill="black" stroke="black" points="794.266,-126.503 785.516,-120.529 788.63,-130.656 794.266,-126.503"/>
</g>
<!-- Rhttp://www.labd.org/2015/voitures/schema#Leon -->
<g id="node7" class="node"><title>Rhttp://www.labd.org/2015/voitures/schema#Leon</title>
<g id="a_node7"><a xlink:href="http://www.labd.org/2015/voitures/schema#Leon" xlink:title="http://www.labd.org/2015/voitures/schema#Leon">
<ellipse fill="none" stroke="blue" cx="239.179" cy="-18" rx="239.358" ry="18"/>
<text text-anchor="middle" x="239.179" y="-14.3" font-family="Times,serif" font-size="14.00">http://www.labd.org/2015/voitures/schema#Leon</text>
</a>
</g>
</g>
<!-- B_:genid1&#45;&gt;Rhttp://www.labd.org/2015/voitures/schema#Leon -->
<g id="edge6" class="edge"><title>B_:genid1-&gt;Rhttp://www.labd.org/2015/voitures/schema#Leon</title>
<path fill="none" stroke="black" d="M757.345,-101.655C694.32,-91.6018 478.761,-57.217 346.343,-36.0942"/>
<polygon fill="black" stroke="black" points="346.593,-32.59 336.167,-34.471 345.49,-39.5026 346.593,-32.59"/>
<text text-anchor="middle" x="579.679" y="-57.8" font-family="Times,serif" font-size="14.00">rdf:subject</text>
</g>
<!-- Rhttp://www.labd.org/2015/voitures/schema#estAtteintPar -->
<g id="node8" class="node"><title>Rhttp://www.labd.org/2015/voitures/schema#estAtteintPar</title>
<g id="a_node8"><a xlink:href="http://www.labd.org/2015/voitures/schema#estAtteintPar" xlink:title="http://www.labd.org/2015/voitures/schema#estAtteintPar">
<ellipse fill="none" stroke="blue" cx="775.179" cy="-18" rx="278.651" ry="18"/>
<text text-anchor="middle" x="775.179" y="-14.3" font-family="Times,serif" font-size="14.00">http://www.labd.org/2015/voitures/schema#estAtteintPar</text>
</a>
</g>
</g>
<!-- B_:genid1&#45;&gt;Rhttp://www.labd.org/2015/voitures/schema#estAtteintPar -->
<g id="edge7" class="edge"><title>B_:genid1-&gt;Rhttp://www.labd.org/2015/voitures/schema#estAtteintPar</title>
<path fill="none" stroke="black" d="M775.179,-87.1978C775.179,-75.493 775.179,-59.7864 775.179,-46.397"/>
<polygon fill="black" stroke="black" points="778.679,-46.2764 775.179,-36.2765 771.679,-46.2765 778.679,-46.2764"/>
<text text-anchor="middle" x="822.179" y="-57.8" font-family="Times,serif" font-size="14.00">rdf:predicate</text>
</g>
<!-- Rhttp://www.labd.org/2015/voitures/schema#maladie -->
<g id="node9" class="node"><title>Rhttp://www.labd.org/2015/voitures/schema#maladie</title>
<g id="a_node9"><a xlink:href="http://www.labd.org/2015/voitures/schema#maladie" xlink:title="http://www.labd.org/2015/voitures/schema#maladie">
<ellipse fill="none" stroke="blue" cx="1325.18" cy="-18" rx="252.655" ry="18"/>
<text text-anchor="middle" x="1325.18" y="-14.3" font-family="Times,serif" font-size="14.00">http://www.labd.org/2015/voitures/schema#maladie</text>
</a>
</g>
</g>
<!-- B_:genid1&#45;&gt;Rhttp://www.labd.org/2015/voitures/schema#maladie -->
<g id="edge8" class="edge"><title>B_:genid1-&gt;Rhttp://www.labd.org/2015/voitures/schema#maladie</title>
<path fill="none" stroke="black" d="M789.12,-93.7902C793.143,-91.1758 797.67,-88.6571 802.179,-87 865.25,-63.821 1027.92,-44.868 1155.25,-32.9145"/>
<polygon fill="black" stroke="black" points="1155.88,-36.3709 1165.51,-31.9588 1155.23,-29.4011 1155.88,-36.3709"/>
<text text-anchor="middle" x="999.179" y="-57.8" font-family="Times,serif" font-size="14.00">rdf:object</text>
</g>
<!-- Rhttp://njh.me/#Leon -->
<g id="node5" class="node"><title>Rhttp://njh.me/#Leon</title>
<g id="a_node5"><a xlink:href="http://njh.me/#Leon" xlink:title="http://njh.me/#Leon">
<ellipse fill="none" stroke="blue" cx="1370.18" cy="-193" rx="104.782" ry="18"/>
<text text-anchor="middle" x="1370.18" y="-189.3" font-family="Times,serif" font-size="14.00">http://njh.me/#Leon</text>
</a>
</g>
</g>
<!-- Rhttp://njh.me/#Leon&#45;&gt;Rhttp://www.labd.org/2015/voitures/schema#Personne -->
<g id="edge4" class="edge"><title>Rhttp://njh.me/#Leon-&gt;Rhttp://www.labd.org/2015/voitures/schema#Personne</title>
<path fill="none" stroke="black" d="M1328.63,-176.417C1291.53,-162.505 1236.95,-142.038 1196.42,-126.839"/>
<polygon fill="black" stroke="black" points="1197.55,-123.526 1186.96,-123.292 1195.09,-130.08 1197.55,-123.526"/>
<text text-anchor="middle" x="1306.18" y="-145.8" font-family="Times,serif" font-size="14.00">rdf:type</text>
</g>
<!-- LLeon -->
<g id="node6" class="node"><title>LLeon</title>
<polygon fill="none" stroke="black" points="1419.18,-87.5 1419.18,-123.5 1473.18,-123.5 1473.18,-87.5 1419.18,-87.5"/>
<text text-anchor="middle" x="1446.18" y="-101.8" font-family="Times,serif" font-size="14.00">Leon</text>
</g>
<!-- Rhttp://njh.me/#Leon&#45;&gt;LLeon -->
<g id="edge5" class="edge"><title>Rhttp://njh.me/#Leon-&gt;LLeon</title>
<path fill="none" stroke="black" d="M1385.19,-175.108C1396.26,-162.659 1411.49,-145.525 1423.96,-131.493"/>
<polygon fill="black" stroke="black" points="1426.91,-133.449 1430.93,-123.65 1421.68,-128.798 1426.91,-133.449"/>
</g>
</g>
</svg>