<?xml version="1.0" encoding="UTF-8" standalone="no"?>
<!DOCTYPE svg PUBLIC "-//W3C//DTD SVG 1.1//EN" "http://www.w3.org/Graphics/SVG/1.1/DTD/svg11.dtd">
<!-- Generated by graphviz version 2.38.0 (20140413.2041)
 -->
<!-- Title: %3 Pages: 1 -->
<svg width="384pt" height="205pt" viewBox="0.00 0.00 384.20 205.00" xmlns="http://www.w3.org/2000/svg" xmlns:xlink="http://www.w3.org/1999/xlink">
<g id="graph0" class="graph" transform="scale(1 1) rotate(0) translate(4 201)">
<title>%3</title>
<polygon fill="white" stroke="none" points="-4,4 -4,-201 380.196,-201 380.196,4 -4,4"/>
<!-- B_:genid1 -->
<g id="node1" class="node"><title>B_:genid1</title>
<ellipse fill="none" stroke="green" cx="205.196" cy="-106" rx="18" ry="18"/>
</g>
<!-- Rhttp://www.w3.org/1999/02/22&#45;rdf&#45;syntax&#45;ns#Seq -->
<g id="node2" class="node"><title>Rhttp://www.w3.org/1999/02/22-rdf-syntax-ns#Seq</title>
<g id="a_node2"><a xlink:href="http://www.w3.org/1999/02/22-rdf-syntax-ns#Seq" xlink:title="rdf:Seq">
<ellipse fill="none" stroke="blue" cx="44.1961" cy="-18.5" rx="44.393" ry="18"/>
<text text-anchor="middle" x="44.1961" y="-14.8" font-family="Times,serif" font-size="14.00">rdf:Seq</text>
</a>
</g>
</g>
<!-- B_:genid1&#45;&gt;Rhttp://www.w3.org/1999/02/22&#45;rdf&#45;syntax&#45;ns#Seq -->
<g id="edge1" class="edge"><title>B_:genid1-&gt;Rhttp://www.w3.org/1999/02/22-rdf-syntax-ns#Seq</title>
<path fill="none" stroke="black" d="M187.063,-102.892C162.671,-99.3632 118.718,-90.5123 87.1961,-70 76.9987,-63.3642 67.8941,-53.6038 60.7173,-44.4283"/>
<polygon fill="black" stroke="black" points="63.4494,-42.2362 54.6922,-36.2727 57.8191,-46.3956 63.4494,-42.2362"/>
<text text-anchor="middle" x="116.196" y="-58.8" font-family="Times,serif" font-size="14.00">rdf:type</text>
</g>
<!-- La -->
<g id="node3" class="node"><title>La</title>
<polygon fill="none" stroke="black" points="106.196,-0.5 106.196,-36.5 160.196,-36.5 160.196,-0.5 106.196,-0.5"/>
<text text-anchor="middle" x="133.196" y="-14.8" font-family="Times,serif" font-size="14.00">a</text>
</g>
<!-- B_:genid1&#45;&gt;La -->
<g id="edge2" class="edge"><title>B_:genid1-&gt;La</title>
<path fill="none" stroke="black" d="M189.738,-96.1424C179.769,-89.8391 167.059,-80.6252 158.196,-70 152.251,-62.8725 147.279,-54.0918 143.375,-45.8624"/>
<polygon fill="black" stroke="black" points="146.523,-44.3271 139.288,-36.5869 140.117,-47.1493 146.523,-44.3271"/>
<text text-anchor="middle" x="179.696" y="-58.8" font-family="Times,serif" font-size="14.00">rdf:_1</text>
</g>
<!-- Lb -->
<g id="node4" class="node"><title>Lb</title>
<polygon fill="none" stroke="black" points="178.196,-0.5 178.196,-36.5 232.196,-36.5 232.196,-0.5 178.196,-0.5"/>
<text text-anchor="middle" x="205.196" y="-14.8" font-family="Times,serif" font-size="14.00">b</text>
</g>
<!-- B_:genid1&#45;&gt;Lb -->
<g id="edge3" class="edge"><title>B_:genid1-&gt;Lb</title>
<path fill="none" stroke="black" d="M205.196,-87.6978C205.196,-75.993 205.196,-60.2864 205.196,-46.897"/>
<polygon fill="black" stroke="black" points="208.696,-46.7764 205.196,-36.7765 201.696,-46.7765 208.696,-46.7764"/>
<text text-anchor="middle" x="226.696" y="-58.8" font-family="Times,serif" font-size="14.00">rdf:_2</text>
</g>
<!-- Lc -->
<g id="node5" class="node"><title>Lc</title>
<polygon fill="none" stroke="black" points="250.196,-0.5 250.196,-36.5 304.196,-36.5 304.196,-0.5 250.196,-0.5"/>
<text text-anchor="middle" x="277.196" y="-14.8" font-family="Times,serif" font-size="14.00">c</text>
</g>
<!-- B_:genid1&#45;&gt;Lc -->
<g id="edge4" class="edge"><title>B_:genid1-&gt;Lc</title>
<path fill="none" stroke="black" d="M220.654,-96.1424C230.623,-89.8391 243.334,-80.6252 252.196,-70 258.141,-62.8725 263.113,-54.0918 267.017,-45.8624"/>
<polygon fill="black" stroke="black" points="270.275,-47.1493 271.104,-36.5869 263.869,-44.3271 270.275,-47.1493"/>
<text text-anchor="middle" x="282.696" y="-58.8" font-family="Times,serif" font-size="14.00">rdf:_3</text>
</g>
<!-- Ld -->
<g id="node6" class="node"><title>Ld</title>
<polygon fill="none" stroke="black" points="322.196,-0.5 322.196,-36.5 376.196,-36.5 376.196,-0.5 322.196,-0.5"/>
<text text-anchor="middle" x="349.196" y="-14.8" font-family="Times,serif" font-size="14.00">d</text>
</g>
<!-- B_:genid1&#45;&gt;Ld -->
<g id="edge5" class="edge"><title>B_:genid1-&gt;Ld</title>
<path fill="none" stroke="black" d="M222.955,-102.09C244.639,-97.8706 281.692,-88.4535 308.196,-70 317.748,-63.3495 326.254,-53.869 333.008,-44.9149"/>
<polygon fill="black" stroke="black" points="335.978,-46.7781 338.924,-36.601 330.275,-42.7197 335.978,-46.7781"/>
<text text-anchor="middle" x="344.696" y="-58.8" font-family="Times,serif" font-size="14.00">rdf:_4</text>
</g>
<!-- Rhttp://njh.me/#Container -->
<g id="node7" class="node"><title>Rhttp://njh.me/#Container</title>
<g id="a_node7"><a xlink:href="http://njh.me/#Container" xlink:title="http://njh.me/#Container">
<ellipse fill="none" stroke="blue" cx="205.196" cy="-179" rx="128.077" ry="18"/>
<text text-anchor="middle" x="205.196" y="-175.3" font-family="Times,serif" font-size="14.00">http://njh.me/#Container</text>
</a>
</g>
</g>
<!-- Rhttp://njh.me/#Container&#45;&gt;B_:genid1 -->
<g id="edge6" class="edge"><title>Rhttp://njh.me/#Container-&gt;B_:genid1</title>
<path fill="none" stroke="black" d="M205.196,-160.813C205.196,-152.789 205.196,-143.047 205.196,-134.069"/>
<polygon fill="black" stroke="black" points="208.696,-134.029 205.196,-124.029 201.696,-134.029 208.696,-134.029"/>
</g>
</g>
</svg>