<?xml version="1.0" encoding="UTF-8" standalone="no"?>
<!DOCTYPE svg PUBLIC "-//W3C//DTD SVG 1.1//EN" "http://www.w3.org/Graphics/SVG/1.1/DTD/svg11.dtd">
<!-- Generated by graphviz version 2.38.0 (20140413.2041)
 -->
<!-- Title: %3 Pages: 1 -->
<svg width="2071pt" height="219pt" viewBox="0.00 0.00 2071.04 219.00" xmlns="http://www.w3.org/2000/svg" xmlns:xlink="http://www.w3.org/1999/xlink">
<g id="graph0" class="graph" transform="scale(1 1) rotate(0) translate(4 215)">
<title>%3</title>
<polygon fill="white" stroke="none" points="-4,4 -4,-215 2067.04,-215 2067.04,4 -4,4"/>
<!-- Rhttp://njh.me/#Voiture -->
<g id="node1" class="node"><title>Rhttp://njh.me/#Voiture</title>
<g id="a_node1"><a xlink:href="http://njh.me/#Voiture" xlink:title="http://njh.me/#Voiture">
<ellipse fill="none" stroke="blue" cx="115.04" cy="-106" rx="115.08" ry="18"/>
<text text-anchor="middle" x="115.04" y="-102.3" font-family="Times,serif" font-size="14.00">http://njh.me/#Voiture</text>
</a>
</g>
</g>
<!-- Rhttp://www.w3.org/2000/01/rdf&#45;schema#Class -->
<g id="node2" class="node"><title>Rhttp://www.w3.org/2000/01/rdf-schema#Class</title>
<g id="a_node2"><a xlink:href="http://www.w3.org/2000/01/rdf-schema#Class" xlink:title="rdfs:Class">
<ellipse fill="none" stroke="blue" cx="240.04" cy="-18.5" rx="57.6901" ry="18"/>
<text text-anchor="middle" x="240.04" y="-14.8" font-family="Times,serif" font-size="14.00">rdfs:Class</text>
</a>
</g>
</g>
<!-- Rhttp://njh.me/#Voiture&#45;&gt;Rhttp://www.w3.org/2000/01/rdf&#45;schema#Class -->
<g id="edge1" class="edge"><title>Rhttp://njh.me/#Voiture-&gt;Rhttp://www.w3.org/2000/01/rdf-schema#Class</title>
<path fill="none" stroke="black" d="M161.739,-89.4518C173.843,-84.2766 186.443,-77.7983 197.04,-70 206.697,-62.8933 215.612,-53.2132 222.791,-44.2288"/>
<polygon fill="black" stroke="black" points="225.582,-46.34 228.867,-36.2672 220.018,-42.0931 225.582,-46.34"/>
<text text-anchor="middle" x="243.04" y="-58.8" font-family="Times,serif" font-size="14.00">rdf:type</text>
</g>
<!-- L La classe Voiture -->
<g id="node3" class="node"><title>L La classe Voiture</title>
<polygon fill="none" stroke="black" points="24.0398,-0.5 24.0398,-36.5 164.04,-36.5 164.04,-0.5 24.0398,-0.5"/>
<text text-anchor="middle" x="94.0398" y="-14.8" font-family="Times,serif" font-size="14.00">La classe Voiture</text>
</g>
<!-- Rhttp://njh.me/#Voiture&#45;&gt;L La classe Voiture -->
<g id="edge2" class="edge"><title>Rhttp://njh.me/#Voiture-&gt;L La classe Voiture</title>
<path fill="none" stroke="black" d="M104.386,-87.7769C101.491,-82.2888 98.6994,-76.0632 97.0398,-70 95.0225,-62.63 94.0299,-54.4369 93.5984,-46.8313"/>
<polygon fill="black" stroke="black" points="97.0911,-46.5162 93.3138,-36.6176 90.0938,-46.7113 97.0911,-46.5162"/>
<text text-anchor="middle" x="147.04" y="-58.8" font-family="Times,serif" font-size="14.00">rdfs:comment</text>
</g>
<!-- Rhttp://njh.me/#Marque -->
<g id="node4" class="node"><title>Rhttp://njh.me/#Marque</title>
<g id="a_node4"><a xlink:href="http://njh.me/#Marque" xlink:title="http://njh.me/#Marque">
<ellipse fill="none" stroke="blue" cx="366.04" cy="-106" rx="118.079" ry="18"/>
<text text-anchor="middle" x="366.04" y="-102.3" font-family="Times,serif" font-size="14.00">http://njh.me/#Marque</text>
</a>
</g>
</g>
<!-- Rhttp://njh.me/#Marque&#45;&gt;Rhttp://www.w3.org/2000/01/rdf&#45;schema#Class -->
<g id="edge3" class="edge"><title>Rhttp://njh.me/#Marque-&gt;Rhttp://www.w3.org/2000/01/rdf-schema#Class</title>
<path fill="none" stroke="black" d="M341.155,-88.2977C332.557,-82.5146 322.868,-75.9832 314.04,-70 299.993,-60.4796 284.478,-49.9018 271.299,-40.897"/>
<polygon fill="black" stroke="black" points="273.244,-37.9875 263.014,-35.2337 269.294,-43.7664 273.244,-37.9875"/>
<text text-anchor="middle" x="343.04" y="-58.8" font-family="Times,serif" font-size="14.00">rdf:type</text>
</g>
<!-- LLa classe Marque -->
<g id="node5" class="node"><title>LLa classe Marque</title>
<polygon fill="none" stroke="black" points="316.04,-0.5 316.04,-36.5 460.04,-36.5 460.04,-0.5 316.04,-0.5"/>
<text text-anchor="middle" x="388.04" y="-14.8" font-family="Times,serif" font-size="14.00">La classe Marque</text>
</g>
<!-- Rhttp://njh.me/#Marque&#45;&gt;LLa classe Marque -->
<g id="edge4" class="edge"><title>Rhttp://njh.me/#Marque-&gt;LLa classe Marque</title>
<path fill="none" stroke="black" d="M370.492,-87.6978C373.533,-75.8771 377.625,-59.975 381.092,-46.5"/>
<polygon fill="black" stroke="black" points="384.492,-47.3332 383.594,-36.7765 377.713,-45.5888 384.492,-47.3332"/>
<text text-anchor="middle" x="429.04" y="-58.8" font-family="Times,serif" font-size="14.00">rdfs:comment</text>
</g>
<!-- Rhttp://njh.me/#nom -->
<g id="node6" class="node"><title>Rhttp://njh.me/#nom</title>
<g id="a_node6"><a xlink:href="http://njh.me/#nom" xlink:title="http://njh.me/#nom">
<ellipse fill="none" stroke="blue" cx="492.04" cy="-193" rx="101.282" ry="18"/>
<text text-anchor="middle" x="492.04" y="-189.3" font-family="Times,serif" font-size="14.00">http://njh.me/#nom</text>
</a>
</g>
</g>
<!-- Rhttp://njh.me/#nom&#45;&gt;Rhttp://njh.me/#Voiture -->
<g id="edge6" class="edge"><title>Rhttp://njh.me/#nom-&gt;Rhttp://njh.me/#Voiture</title>
<path fill="none" stroke="black" d="M428.109,-178.908C397.231,-172.486 359.668,-164.528 326.04,-157 278.695,-146.401 225.546,-133.802 184.434,-123.903"/>
<polygon fill="black" stroke="black" points="185.062,-120.454 174.52,-121.512 183.421,-127.259 185.062,-120.454"/>
<text text-anchor="middle" x="369.04" y="-145.8" font-family="Times,serif" font-size="14.00">rdfs:domain</text>
</g>
<!-- Rhttp://njh.me/#nom&#45;&gt;Rhttp://njh.me/#Marque -->
<g id="edge7" class="edge"><title>Rhttp://njh.me/#nom-&gt;Rhttp://njh.me/#Marque</title>
<path fill="none" stroke="black" d="M465.58,-175.514C456.475,-169.748 446.255,-163.172 437.04,-157 423.911,-148.207 409.631,-138.232 397.343,-129.518"/>
<polygon fill="black" stroke="black" points="399.37,-126.664 389.193,-123.716 395.31,-132.367 399.37,-126.664"/>
<text text-anchor="middle" x="480.04" y="-145.8" font-family="Times,serif" font-size="14.00">rdfs:domain</text>
</g>
<!-- Rhttp://www.w3.org/1999/02/22&#45;rdf&#45;syntax&#45;ns#property -->
<g id="node7" class="node"><title>Rhttp://www.w3.org/1999/02/22-rdf-syntax-ns#property</title>
<g id="a_node7"><a xlink:href="http://www.w3.org/1999/02/22-rdf-syntax-ns#property" xlink:title="rdf:property">
<ellipse fill="none" stroke="blue" cx="570.04" cy="-106" rx="67.6881" ry="18"/>
<text text-anchor="middle" x="570.04" y="-102.3" font-family="Times,serif" font-size="14.00">rdf:property</text>
</a>
</g>
</g>
<!-- Rhttp://njh.me/#nom&#45;&gt;Rhttp://www.w3.org/1999/02/22&#45;rdf&#45;syntax&#45;ns#property -->
<g id="edge5" class="edge"><title>Rhttp://njh.me/#nom-&gt;Rhttp://www.w3.org/1999/02/22-rdf-syntax-ns#property</title>
<path fill="none" stroke="black" d="M507.45,-175.207C518.988,-162.633 534.938,-145.252 547.849,-131.182"/>
<polygon fill="black" stroke="black" points="550.479,-133.493 554.662,-123.758 545.322,-128.76 550.479,-133.493"/>
<text text-anchor="middle" x="565.04" y="-145.8" font-family="Times,serif" font-size="14.00">rdf:type</text>
</g>
<!-- Rhttp://www.w3.org/2000/01/rdf&#45;schema#Literal -->
<g id="node8" class="node"><title>Rhttp://www.w3.org/2000/01/rdf-schema#Literal</title>
<g id="a_node8"><a xlink:href="http://www.w3.org/2000/01/rdf-schema#Literal" xlink:title="rdfs:Literal">
<ellipse fill="none" stroke="blue" cx="719.04" cy="-106" rx="63.8893" ry="18"/>
<text text-anchor="middle" x="719.04" y="-102.3" font-family="Times,serif" font-size="14.00">rdfs:Literal</text>
</a>
</g>
</g>
<!-- Rhttp://njh.me/#nom&#45;&gt;Rhttp://www.w3.org/2000/01/rdf&#45;schema#Literal -->
<g id="edge8" class="edge"><title>Rhttp://njh.me/#nom-&gt;Rhttp://www.w3.org/2000/01/rdf-schema#Literal</title>
<path fill="none" stroke="black" d="M539.787,-177.053C558.107,-171.104 579.144,-164.013 598.04,-157 624.33,-147.242 653.384,-135.277 676.431,-125.498"/>
<polygon fill="black" stroke="black" points="678.089,-128.596 685.915,-121.453 675.343,-122.157 678.089,-128.596"/>
<text text-anchor="middle" x="668.54" y="-145.8" font-family="Times,serif" font-size="14.00">rdf:range</text>
</g>
<!-- Rhttp://njh.me/#vo001 -->
<g id="node9" class="node"><title>Rhttp://njh.me/#vo001</title>
<g id="a_node9"><a xlink:href="http://njh.me/#vo001" xlink:title="http://njh.me/#vo001">
<ellipse fill="none" stroke="blue" cx="1436.04" cy="-193" rx="109.681" ry="18"/>
<text text-anchor="middle" x="1436.04" y="-189.3" font-family="Times,serif" font-size="14.00">http://njh.me/#vo001</text>
</a>
</g>
</g>
<!-- Rhttp://www.labd.org/2015/voitures/schema#Voiture -->
<g id="node10" class="node"><title>Rhttp://www.labd.org/2015/voitures/schema#Voiture</title>
<g id="a_node10"><a xlink:href="http://www.labd.org/2015/voitures/schema#Voiture" xlink:title="http://www.labd.org/2015/voitures/schema#Voiture">
<ellipse fill="none" stroke="blue" cx="1051.04" cy="-106" rx="250.456" ry="18"/>
<text text-anchor="middle" x="1051.04" y="-102.3" font-family="Times,serif" font-size="14.00">http://www.labd.org/2015/voitures/schema#Voiture</text>
</a>
</g>
</g>
<!-- Rhttp://njh.me/#vo001&#45;&gt;Rhttp://www.labd.org/2015/voitures/schema#Voiture -->
<g id="edge9" class="edge"><title>Rhttp://njh.me/#vo001-&gt;Rhttp://www.labd.org/2015/voitures/schema#Voiture</title>
<path fill="none" stroke="black" d="M1373.33,-178.154C1308.31,-163.799 1206.31,-141.281 1134.51,-125.429"/>
<polygon fill="black" stroke="black" points="1135.11,-121.976 1124.59,-123.237 1133.6,-128.811 1135.11,-121.976"/>
<text text-anchor="middle" x="1296.04" y="-145.8" font-family="Times,serif" font-size="14.00">rdf:type</text>
</g>
<!-- Rhttp://njh.me/#Citroen -->
<g id="node11" class="node"><title>Rhttp://njh.me/#Citroen</title>
<g id="a_node11"><a xlink:href="http://njh.me/#Citroen" xlink:title="http://njh.me/#Citroen">
<ellipse fill="none" stroke="blue" cx="1436.04" cy="-106" rx="116.18" ry="18"/>
<text text-anchor="middle" x="1436.04" y="-102.3" font-family="Times,serif" font-size="14.00">http://njh.me/#Citroen</text>
</a>
</g>
</g>
<!-- Rhttp://njh.me/#vo001&#45;&gt;Rhttp://njh.me/#Citroen -->
<g id="edge10" class="edge"><title>Rhttp://njh.me/#vo001-&gt;Rhttp://njh.me/#Citroen</title>
<path fill="none" stroke="black" d="M1436.04,-174.799C1436.04,-163.163 1436.04,-147.548 1436.04,-134.237"/>
<polygon fill="black" stroke="black" points="1439.54,-134.175 1436.04,-124.175 1432.54,-134.175 1439.54,-134.175"/>
</g>
<!-- Rhttp://njh.me/#C4 -->
<g id="node12" class="node"><title>Rhttp://njh.me/#C4</title>
<g id="a_node12"><a xlink:href="http://njh.me/#C4" xlink:title="http://njh.me/#C4">
<ellipse fill="none" stroke="blue" cx="1740.04" cy="-106" rx="94.7833" ry="18"/>
<text text-anchor="middle" x="1740.04" y="-102.3" font-family="Times,serif" font-size="14.00">http://njh.me/#C4</text>
</a>
</g>
</g>
<!-- Rhttp://njh.me/#vo001&#45;&gt;Rhttp://njh.me/#C4 -->
<g id="edge11" class="edge"><title>Rhttp://njh.me/#vo001-&gt;Rhttp://njh.me/#C4</title>
<path fill="none" stroke="black" d="M1488.99,-177.194C1542.11,-162.342 1623.81,-139.498 1679.48,-123.934"/>
<polygon fill="black" stroke="black" points="1680.52,-127.276 1689.21,-121.212 1678.64,-120.534 1680.52,-127.276"/>
</g>
<!-- Rhttp://www.labd.org/2015/voitures/schema#Marque -->
<g id="node13" class="node"><title>Rhttp://www.labd.org/2015/voitures/schema#Marque</title>
<g id="a_node13"><a xlink:href="http://www.labd.org/2015/voitures/schema#Marque" xlink:title="http://www.labd.org/2015/voitures/schema#Marque">
<ellipse fill="none" stroke="blue" cx="1130.04" cy="-18.5" rx="252.655" ry="18"/>
<text text-anchor="middle" x="1130.04" y="-14.8" font-family="Times,serif" font-size="14.00">http://www.labd.org/2015/voitures/schema#Marque</text>
</a>
</g>
</g>
<!-- Rhttp://njh.me/#Citroen&#45;&gt;Rhttp://www.labd.org/2015/voitures/schema#Marque -->
<g id="edge12" class="edge"><title>Rhttp://njh.me/#Citroen-&gt;Rhttp://www.labd.org/2015/voitures/schema#Marque</title>
<path fill="none" stroke="black" d="M1382.39,-90.0092C1331.37,-75.7549 1254.4,-54.2465 1198.88,-38.7345"/>
<polygon fill="black" stroke="black" points="1199.69,-35.3283 1189.12,-36.0081 1197.81,-42.0701 1199.69,-35.3283"/>
<text text-anchor="middle" x="1340.04" y="-58.8" font-family="Times,serif" font-size="14.00">rdf:type</text>
</g>
<!-- LCitroen -->
<g id="node14" class="node"><title>LCitroen</title>
<polygon fill="none" stroke="black" points="1400.54,-0.5 1400.54,-36.5 1471.54,-36.5 1471.54,-0.5 1400.54,-0.5"/>
<text text-anchor="middle" x="1436.04" y="-14.8" font-family="Times,serif" font-size="14.00">Citroen</text>
</g>
<!-- Rhttp://njh.me/#Citroen&#45;&gt;LCitroen -->
<g id="edge13" class="edge"><title>Rhttp://njh.me/#Citroen-&gt;LCitroen</title>
<path fill="none" stroke="black" d="M1436.04,-87.6978C1436.04,-75.993 1436.04,-60.2864 1436.04,-46.897"/>
<polygon fill="black" stroke="black" points="1439.54,-46.7764 1436.04,-36.7765 1432.54,-46.7765 1439.54,-46.7764"/>
</g>
<!-- Rhttp://www.labd.org/2015/voitures/schema#Modele -->
<g id="node15" class="node"><title>Rhttp://www.labd.org/2015/voitures/schema#Modele</title>
<g id="a_node15"><a xlink:href="http://www.labd.org/2015/voitures/schema#Modele" xlink:title="http://www.labd.org/2015/voitures/schema#Modele">
<ellipse fill="none" stroke="blue" cx="1740.04" cy="-18.5" rx="250.756" ry="18"/>
<text text-anchor="middle" x="1740.04" y="-14.8" font-family="Times,serif" font-size="14.00">http://www.labd.org/2015/voitures/schema#Modele</text>
</a>
</g>
</g>
<!-- Rhttp://njh.me/#C4&#45;&gt;Rhttp://www.labd.org/2015/voitures/schema#Modele -->
<g id="edge14" class="edge"><title>Rhttp://njh.me/#C4-&gt;Rhttp://www.labd.org/2015/voitures/schema#Modele</title>
<path fill="none" stroke="black" d="M1740.04,-87.6978C1740.04,-75.993 1740.04,-60.2864 1740.04,-46.897"/>
<polygon fill="black" stroke="black" points="1743.54,-46.7764 1740.04,-36.7765 1736.54,-46.7765 1743.54,-46.7764"/>
<text text-anchor="middle" x="1769.04" y="-58.8" font-family="Times,serif" font-size="14.00">rdf:type</text>
</g>
<!-- LC4 -->
<g id="node16" class="node"><title>LC4</title>
<polygon fill="none" stroke="black" points="2009.04,-0.5 2009.04,-36.5 2063.04,-36.5 2063.04,-0.5 2009.04,-0.5"/>
<text text-anchor="middle" x="2036.04" y="-14.8" font-family="Times,serif" font-size="14.00">C4</text>
</g>
<!-- Rhttp://njh.me/#C4&#45;&gt;LC4 -->
<g id="edge15" class="edge"><title>Rhttp://njh.me/#C4-&gt;LC4</title>
<path fill="none" stroke="black" d="M1802.29,-92.3376C1853.34,-81.139 1927.37,-63.0313 1999.12,-36.9996"/>
<polygon fill="black" stroke="black" points="2000.59,-40.1866 2008.77,-33.4452 1998.17,-33.6182 2000.59,-40.1866"/>
</g>
</g>
</svg>