<?xml version="1.0" encoding="UTF-8" standalone="no"?>
<!DOCTYPE svg PUBLIC "-//W3C//DTD SVG 1.1//EN" "http://www.w3.org/Graphics/SVG/1.1/DTD/svg11.dtd">
<!-- Generated by graphviz version 2.38.0 (20140413.2041)
 -->
<!-- Title: %3 Pages: 1 -->
<svg width="989pt" height="308pt" viewBox="0.00 0.00 989.23 308.00" xmlns="http://www.w3.org/2000/svg" xmlns:xlink="http://www.w3.org/1999/xlink">
<g id="graph0" class="graph" transform="scale(1 1) rotate(0) translate(4 304)">
<title>%3</title>
<polygon fill="white" stroke="none" points="-4,4 -4,-304 985.228,-304 985.228,4 -4,4"/>
<!-- Rhttp://njh.me/#vo001 -->
<g id="node1" class="node"><title>Rhttp://njh.me/#vo001</title>
<g id="a_node1"><a xlink:href="http://njh.me/#vo001" xlink:title="http://njh.me/#vo001">
<ellipse fill="none" stroke="blue" cx="635.228" cy="-282" rx="109.681" ry="18"/>
<text text-anchor="middle" x="635.228" y="-278.3" font-family="Times,serif" font-size="14.00">http://njh.me/#vo001</text>
</a>
</g>
</g>
<!-- Rhttp://www.labd.org/2015/voitures/schema#Voiture -->
<g id="node2" class="node"><title>Rhttp://www.labd.org/2015/voitures/schema#Voiture</title>
<g id="a_node2"><a xlink:href="http://www.labd.org/2015/voitures/schema#Voiture" xlink:title="http://www.labd.org/2015/voitures/schema#Voiture">
<ellipse fill="none" stroke="blue" cx="250.228" cy="-194.5" rx="250.456" ry="18"/>
<text text-anchor="middle" x="250.228" y="-190.8" font-family="Times,serif" font-size="14.00">http://www.labd.org/2015/voitures/schema#Voiture</text>
</a>
</g>
</g>
<!-- Rhttp://njh.me/#vo001&#45;&gt;Rhttp://www.labd.org/2015/voitures/schema#Voiture -->
<g id="edge1" class="edge"><title>Rhttp://njh.me/#vo001-&gt;Rhttp://www.labd.org/2015/voitures/schema#Voiture</title>
<path fill="none" stroke="black" d="M572.943,-267.168C507.799,-252.701 405.199,-229.916 333.215,-213.93"/>
<polygon fill="black" stroke="black" points="333.789,-210.472 323.268,-211.721 332.272,-217.305 333.789,-210.472"/>
<text text-anchor="middle" x="506.228" y="-234.8" font-family="Times,serif" font-size="14.00">rdf:type</text>
</g>
<!-- Rhttp://njh.me/#Citroen -->
<g id="node3" class="node"><title>Rhttp://njh.me/#Citroen</title>
<g id="a_node3"><a xlink:href="http://njh.me/#Citroen" xlink:title="http://njh.me/#Citroen">
<ellipse fill="none" stroke="blue" cx="635.228" cy="-194.5" rx="116.18" ry="18"/>
<text text-anchor="middle" x="635.228" y="-190.8" font-family="Times,serif" font-size="14.00">http://njh.me/#Citroen</text>
</a>
</g>
</g>
<!-- Rhttp://njh.me/#vo001&#45;&gt;Rhttp://njh.me/#Citroen -->
<g id="edge2" class="edge"><title>Rhttp://njh.me/#vo001-&gt;Rhttp://njh.me/#Citroen</title>
<path fill="none" stroke="black" d="M635.228,-263.698C635.228,-251.993 635.228,-236.286 635.228,-222.897"/>
<polygon fill="black" stroke="black" points="638.728,-222.776 635.228,-212.776 631.728,-222.777 638.728,-222.776"/>
</g>
<!-- LC4 -->
<g id="node4" class="node"><title>LC4</title>
<polygon fill="none" stroke="black" points="769.228,-176.5 769.228,-212.5 823.228,-212.5 823.228,-176.5 769.228,-176.5"/>
<text text-anchor="middle" x="796.228" y="-190.8" font-family="Times,serif" font-size="14.00">C4</text>
</g>
<!-- Rhttp://njh.me/#vo001&#45;&gt;LC4 -->
<g id="edge3" class="edge"><title>Rhttp://njh.me/#vo001-&gt;LC4</title>
<path fill="none" stroke="black" d="M666.27,-264.515C693.034,-250.302 731.705,-229.765 759.902,-214.791"/>
<polygon fill="black" stroke="black" points="761.84,-217.725 769.03,-209.943 758.557,-211.543 761.84,-217.725"/>
</g>
<!-- Rhttp://www.labd.org/2015/voitures/schema#Marque -->
<g id="node5" class="node"><title>Rhttp://www.labd.org/2015/voitures/schema#Marque</title>
<g id="a_node5"><a xlink:href="http://www.labd.org/2015/voitures/schema#Marque" xlink:title="http://www.labd.org/2015/voitures/schema#Marque">
<ellipse fill="none" stroke="blue" cx="329.228" cy="-106.5" rx="252.655" ry="18"/>
<text text-anchor="middle" x="329.228" y="-102.8" font-family="Times,serif" font-size="14.00">http://www.labd.org/2015/voitures/schema#Marque</text>
</a>
</g>
</g>
<!-- Rhttp://njh.me/#Citroen&#45;&gt;Rhttp://www.labd.org/2015/voitures/schema#Marque -->
<g id="edge4" class="edge"><title>Rhttp://njh.me/#Citroen-&gt;Rhttp://www.labd.org/2015/voitures/schema#Marque</title>
<path fill="none" stroke="black" d="M581.577,-178.422C530.48,-164.061 453.34,-142.381 397.803,-126.773"/>
<polygon fill="black" stroke="black" points="398.618,-123.366 388.044,-124.03 396.724,-130.105 398.618,-123.366"/>
<text text-anchor="middle" x="530.228" y="-146.8" font-family="Times,serif" font-size="14.00">rdf:type</text>
</g>
<!-- LCitroen -->
<g id="node6" class="node"><title>LCitroen</title>
<polygon fill="none" stroke="black" points="599.728,-88.5 599.728,-124.5 670.728,-124.5 670.728,-88.5 599.728,-88.5"/>
<text text-anchor="middle" x="635.228" y="-102.8" font-family="Times,serif" font-size="14.00">Citroen</text>
</g>
<!-- Rhttp://njh.me/#Citroen&#45;&gt;LCitroen -->
<g id="edge5" class="edge"><title>Rhttp://njh.me/#Citroen-&gt;LCitroen</title>
<path fill="none" stroke="black" d="M635.228,-176.097C635.228,-164.246 635.228,-148.317 635.228,-134.792"/>
<polygon fill="black" stroke="black" points="638.728,-134.584 635.228,-124.584 631.728,-134.584 638.728,-134.584"/>
</g>
<!-- Rhttp://njh.me/#1919 -->
<g id="node7" class="node"><title>Rhttp://njh.me/#1919</title>
<g id="a_node7"><a xlink:href="http://njh.me/#1919" xlink:title="http://njh.me/#1919">
<ellipse fill="none" stroke="blue" cx="793.228" cy="-106.5" rx="104.782" ry="18"/>
<text text-anchor="middle" x="793.228" y="-102.8" font-family="Times,serif" font-size="14.00">http://njh.me/#1919</text>
</a>
</g>
</g>
<!-- Rhttp://njh.me/#Citroen&#45;&gt;Rhttp://njh.me/#1919 -->
<g id="edge6" class="edge"><title>Rhttp://njh.me/#Citroen-&gt;Rhttp://njh.me/#1919</title>
<path fill="none" stroke="black" d="M665.692,-176.918C690.909,-163.192 726.899,-143.603 754.22,-128.732"/>
<polygon fill="black" stroke="black" points="756.016,-131.74 763.126,-123.885 752.669,-125.591 756.016,-131.74"/>
</g>
<!-- Rhttp://www.labd.org/2015/voitures/schema#dateCreation -->
<g id="node8" class="node"><title>Rhttp://www.labd.org/2015/voitures/schema#dateCreation</title>
<g id="a_node8"><a xlink:href="http://www.labd.org/2015/voitures/schema#dateCreation" xlink:title="http://www.labd.org/2015/voitures/schema#dateCreation">
<ellipse fill="none" stroke="blue" cx="631.228" cy="-18.5" rx="277.551" ry="18"/>
<text text-anchor="middle" x="631.228" y="-14.8" font-family="Times,serif" font-size="14.00">http://www.labd.org/2015/voitures/schema#dateCreation</text>
</a>
</g>
</g>
<!-- Rhttp://njh.me/#1919&#45;&gt;Rhttp://www.labd.org/2015/voitures/schema#dateCreation -->
<g id="edge7" class="edge"><title>Rhttp://njh.me/#1919-&gt;Rhttp://www.labd.org/2015/voitures/schema#dateCreation</title>
<path fill="none" stroke="black" d="M762.376,-89.1216C736.807,-75.5483 700.248,-56.1404 672.222,-41.2621"/>
<polygon fill="black" stroke="black" points="673.546,-38.0026 663.072,-36.405 670.264,-44.1854 673.546,-38.0026"/>
<text text-anchor="middle" x="751.228" y="-58.8" font-family="Times,serif" font-size="14.00">rdf:type</text>
</g>
<!-- L1919 -->
<g id="node9" class="node"><title>L1919</title>
<polygon fill="none" stroke="black" points="927.228,-0.5 927.228,-36.5 981.228,-36.5 981.228,-0.5 927.228,-0.5"/>
<text text-anchor="middle" x="954.228" y="-14.8" font-family="Times,serif" font-size="14.00">1919</text>
</g>
<!-- Rhttp://njh.me/#1919&#45;&gt;L1919 -->
<g id="edge8" class="edge"><title>Rhttp://njh.me/#1919-&gt;L1919</title>
<path fill="none" stroke="black" d="M823.89,-89.1216C850.694,-74.8039 889.651,-53.9942 917.99,-38.857"/>
<polygon fill="black" stroke="black" points="919.989,-41.7573 927.16,-33.9585 916.691,-35.5829 919.989,-41.7573"/>
</g>
</g>
</svg>