<?xml version="1.0" encoding="UTF-8" standalone="no"?>
<!DOCTYPE svg PUBLIC "-//W3C//DTD SVG 1.1//EN" "http://www.w3.org/Graphics/SVG/1.1/DTD/svg11.dtd">
<!-- Generated by graphviz version 2.38.0 (20140413.2041)
 -->
<!-- Title: %3 Pages: 1 -->
<svg width="566pt" height="469pt" viewBox="0.00 0.00 565.63 469.00" xmlns="http://www.w3.org/2000/svg" xmlns:xlink="http://www.w3.org/1999/xlink">
<g id="graph0" class="graph" transform="scale(1 1) rotate(0) translate(4 465)">
<title>%3</title>
<polygon fill="white" stroke="none" points="-4,4 -4,-465 561.628,-465 561.628,4 -4,4"/>
<!-- Rhttp://njh.me/#Collection -->
<g id="node1" class="node"><title>Rhttp://njh.me/#Collection</title>
<g id="a_node1"><a xlink:href="http://njh.me/#Collection" xlink:title="http://njh.me/#Collection">
<ellipse fill="none" stroke="blue" cx="128.689" cy="-443" rx="128.877" ry="18"/>
<text text-anchor="middle" x="128.689" y="-439.3" font-family="Times,serif" font-size="14.00">http://njh.me/#Collection</text>
</a>
</g>
</g>
<!-- Rhttp://labd.com/testns1 -->
<g id="node2" class="node"><title>Rhttp://labd.com/testns1</title>
<g id="a_node2"><a xlink:href="http://labd.com/testns1" xlink:title="http://labd.com/testns1">
<ellipse fill="none" stroke="blue" cx="128.689" cy="-370" rx="118.879" ry="18"/>
<text text-anchor="middle" x="128.689" y="-366.3" font-family="Times,serif" font-size="14.00">http://labd.com/testns1</text>
</a>
</g>
</g>
<!-- Rhttp://njh.me/#Collection&#45;&gt;Rhttp://labd.com/testns1 -->
<g id="edge1" class="edge"><title>Rhttp://njh.me/#Collection-&gt;Rhttp://labd.com/testns1</title>
<path fill="none" stroke="black" d="M128.689,-424.813C128.689,-416.789 128.689,-407.047 128.689,-398.069"/>
<polygon fill="black" stroke="black" points="132.189,-398.029 128.689,-388.029 125.189,-398.029 132.189,-398.029"/>
</g>
<!-- La -->
<g id="node3" class="node"><title>La</title>
<polygon fill="none" stroke="black" points="41.6886,-264.5 41.6886,-300.5 95.6886,-300.5 95.6886,-264.5 41.6886,-264.5"/>
<text text-anchor="middle" x="68.6886" y="-278.8" font-family="Times,serif" font-size="14.00">a</text>
</g>
<!-- Rhttp://labd.com/testns1&#45;&gt;La -->
<g id="edge2" class="edge"><title>Rhttp://labd.com/testns1-&gt;La</title>
<path fill="none" stroke="black" d="M116.547,-351.698C108.007,-339.529 96.4332,-323.036 86.8061,-309.317"/>
<polygon fill="black" stroke="black" points="89.4217,-306.952 80.8124,-300.776 83.6918,-310.973 89.4217,-306.952"/>
<text text-anchor="middle" x="132.189" y="-322.8" font-family="Times,serif" font-size="14.00">rdf:first</text>
</g>
<!-- Rhttp://labd.com/testns2 -->
<g id="node4" class="node"><title>Rhttp://labd.com/testns2</title>
<g id="a_node4"><a xlink:href="http://labd.com/testns2" xlink:title="http://labd.com/testns2">
<ellipse fill="none" stroke="blue" cx="232.689" cy="-282.5" rx="118.879" ry="18"/>
<text text-anchor="middle" x="232.689" y="-278.8" font-family="Times,serif" font-size="14.00">http://labd.com/testns2</text>
</a>
</g>
</g>
<!-- Rhttp://labd.com/testns1&#45;&gt;Rhttp://labd.com/testns2 -->
<g id="edge3" class="edge"><title>Rhttp://labd.com/testns1-&gt;Rhttp://labd.com/testns2</title>
<path fill="none" stroke="black" d="M149.236,-352.108C164.904,-339.227 186.676,-321.328 204.053,-307.042"/>
<polygon fill="black" stroke="black" points="206.682,-309.411 212.184,-300.357 202.237,-304.004 206.682,-309.411"/>
<text text-anchor="middle" x="215.189" y="-322.8" font-family="Times,serif" font-size="14.00">rdf:rest</text>
</g>
<!-- Lb -->
<g id="node5" class="node"><title>Lb</title>
<polygon fill="none" stroke="black" points="144.689,-176.5 144.689,-212.5 198.689,-212.5 198.689,-176.5 144.689,-176.5"/>
<text text-anchor="middle" x="171.689" y="-190.8" font-family="Times,serif" font-size="14.00">b</text>
</g>
<!-- Rhttp://labd.com/testns2&#45;&gt;Lb -->
<g id="edge4" class="edge"><title>Rhttp://labd.com/testns2-&gt;Lb</title>
<path fill="none" stroke="black" d="M220.637,-264.509C211.838,-252.105 199.759,-235.074 189.801,-221.036"/>
<polygon fill="black" stroke="black" points="192.564,-218.882 183.924,-212.75 186.855,-222.931 192.564,-218.882"/>
<text text-anchor="middle" x="234.189" y="-234.8" font-family="Times,serif" font-size="14.00">rdf:first</text>
</g>
<!-- Rhttp://labd.com/testns3 -->
<g id="node6" class="node"><title>Rhttp://labd.com/testns3</title>
<g id="a_node6"><a xlink:href="http://labd.com/testns3" xlink:title="http://labd.com/testns3">
<ellipse fill="none" stroke="blue" cx="335.689" cy="-194.5" rx="118.879" ry="18"/>
<text text-anchor="middle" x="335.689" y="-190.8" font-family="Times,serif" font-size="14.00">http://labd.com/testns3</text>
</a>
</g>
</g>
<!-- Rhttp://labd.com/testns2&#45;&gt;Rhttp://labd.com/testns3 -->
<g id="edge5" class="edge"><title>Rhttp://labd.com/testns2-&gt;Rhttp://labd.com/testns3</title>
<path fill="none" stroke="black" d="M253.038,-264.509C268.556,-251.552 290.118,-233.549 307.328,-219.18"/>
<polygon fill="black" stroke="black" points="309.948,-221.551 315.381,-212.456 305.462,-216.178 309.948,-221.551"/>
<text text-anchor="middle" x="317.189" y="-234.8" font-family="Times,serif" font-size="14.00">rdf:rest</text>
</g>
<!-- Lc -->
<g id="node7" class="node"><title>Lc</title>
<polygon fill="none" stroke="black" points="247.689,-88.5 247.689,-124.5 301.689,-124.5 301.689,-88.5 247.689,-88.5"/>
<text text-anchor="middle" x="274.689" y="-102.8" font-family="Times,serif" font-size="14.00">c</text>
</g>
<!-- Rhttp://labd.com/testns3&#45;&gt;Lc -->
<g id="edge6" class="edge"><title>Rhttp://labd.com/testns3-&gt;Lc</title>
<path fill="none" stroke="black" d="M323.637,-176.509C314.838,-164.105 302.759,-147.074 292.801,-133.036"/>
<polygon fill="black" stroke="black" points="295.564,-130.882 286.924,-124.75 289.855,-134.931 295.564,-130.882"/>
<text text-anchor="middle" x="336.189" y="-146.8" font-family="Times,serif" font-size="14.00">rdf:first</text>
</g>
<!-- Rhttp://labd.com/testns4 -->
<g id="node8" class="node"><title>Rhttp://labd.com/testns4</title>
<g id="a_node8"><a xlink:href="http://labd.com/testns4" xlink:title="http://labd.com/testns4">
<ellipse fill="none" stroke="blue" cx="438.689" cy="-106.5" rx="118.879" ry="18"/>
<text text-anchor="middle" x="438.689" y="-102.8" font-family="Times,serif" font-size="14.00">http://labd.com/testns4</text>
</a>
</g>
</g>
<!-- Rhttp://labd.com/testns3&#45;&gt;Rhttp://labd.com/testns4 -->
<g id="edge7" class="edge"><title>Rhttp://labd.com/testns3-&gt;Rhttp://labd.com/testns4</title>
<path fill="none" stroke="black" d="M356.038,-176.509C371.556,-163.552 393.118,-145.549 410.328,-131.18"/>
<polygon fill="black" stroke="black" points="412.948,-133.551 418.381,-124.456 408.462,-128.178 412.948,-133.551"/>
<text text-anchor="middle" x="420.189" y="-146.8" font-family="Times,serif" font-size="14.00">rdf:rest</text>
</g>
<!-- Ld -->
<g id="node9" class="node"><title>Ld</title>
<polygon fill="none" stroke="black" points="369.689,-0.5 369.689,-36.5 423.689,-36.5 423.689,-0.5 369.689,-0.5"/>
<text text-anchor="middle" x="396.689" y="-14.8" font-family="Times,serif" font-size="14.00">d</text>
</g>
<!-- Rhttp://labd.com/testns4&#45;&gt;Ld -->
<g id="edge8" class="edge"><title>Rhttp://labd.com/testns4-&gt;Ld</title>
<path fill="none" stroke="black" d="M417.604,-88.5265C412.244,-83.1609 407.056,-76.8313 403.689,-70 400.191,-62.9046 398.282,-54.6083 397.279,-46.8144"/>
<polygon fill="black" stroke="black" points="400.75,-46.3225 396.409,-36.6578 393.775,-46.9201 400.75,-46.3225"/>
<text text-anchor="middle" x="431.189" y="-58.8" font-family="Times,serif" font-size="14.00">rdf:first</text>
</g>
<!-- Rhttp://www.w3.org/1999/02/22&#45;rdf&#45;syntax&#45;ns#nil -->
<g id="node10" class="node"><title>Rhttp://www.w3.org/1999/02/22-rdf-syntax-ns#nil</title>
<g id="a_node10"><a xlink:href="http://www.w3.org/1999/02/22-rdf-syntax-ns#nil" xlink:title="rdf:nil">
<ellipse fill="none" stroke="blue" cx="480.689" cy="-18.5" rx="38.9931" ry="18"/>
<text text-anchor="middle" x="480.689" y="-14.8" font-family="Times,serif" font-size="14.00">rdf:nil</text>
</a>
</g>
</g>
<!-- Rhttp://labd.com/testns4&#45;&gt;Rhttp://www.w3.org/1999/02/22&#45;rdf&#45;syntax&#45;ns#nil -->
<g id="edge9" class="edge"><title>Rhttp://labd.com/testns4-&gt;Rhttp://www.w3.org/1999/02/22-rdf-syntax-ns#nil</title>
<path fill="none" stroke="black" d="M448.813,-88.3565C452.093,-82.5912 455.662,-76.0792 458.689,-70 462.525,-62.2953 466.383,-53.7663 469.773,-45.945"/>
<polygon fill="black" stroke="black" points="473.084,-47.1035 473.78,-36.5316 466.643,-44.3616 473.084,-47.1035"/>
<text text-anchor="middle" x="492.189" y="-58.8" font-family="Times,serif" font-size="14.00">rdf:rest</text>
</g>
</g>
</svg>